<?xml version="1.0" encoding="UTF-8"?>
<svg width="365px" height="389px" viewBox="0 0 365 389" version="1.1" xmlns="http://www.w3.org/2000/svg" xmlns:xlink="http://www.w3.org/1999/xlink">
    <g id="" stroke="none" stroke-width="1" fill="none" fill-rule="evenodd">
        <path d="M341.111129,111.628367 C369.151129,132.068367 367.011129,176.398367 358.571129,206.128367 C348.591129,241.338367 325.551129,271.148367 296.421129,292.818367 C266.231129,315.298367 226.231129,334.198367 188.001129,334.358367 C187.901129,335.188367 187.791129,336.048367 187.671129,336.898367 C185.841129,347.798367 180.731129,355.978367 173.731129,361.998367 C177.401129,365.188367 181.001129,369.438367 180.791129,374.518367 C180.621129,379.248367 176.941129,382.998367 172.691129,384.538367 C163.841129,387.748367 154.001129,381.868367 152.981129,372.768367 C142.001129,375.998367 129.861129,376.768367 118.711129,375.918367 C111.731129,375.358367 104.541129,374.458367 97.5611289,372.938367 C97.7711289,384.068367 86.3911289,391.958367 75.9311289,387.608367 C65.5811289,383.338367 62.4511289,369.508367 69.6611289,361.318367 C61.8911289,355.648367 55.7611289,347.898367 52.5111289,337.188367 C51.3611289,333.438367 50.6611289,329.628367 50.2611289,325.788367 C31.9111289,325.658367 32.5111289,302.478367 35.0911289,289.438367 C39.4611289,267.148367 51.6311289,246.058367 65.2411289,228.108367 C33.5111289,216.128367 13.0711289,190.918367 7.57112889,157.318367 C3.03112889,129.468367 5.40112889,92.4683668 27.5111289,71.9683668 C17.1811289,69.1183668 8.53112889,61.8183668 3.76112889,52.1583668 C0.281128895,45.1383668 -2.67887111,33.7883668 3.97112889,27.5083668 C11.1411289,20.7783668 25.0311289,25.6083668 32.3211289,29.6983668 C41.8611289,35.0483668 48.6311289,43.6983668 52.0311289,54.0083668 C63.7611289,39.8883668 78.7811289,28.7383668 94.5911289,19.5483668 C109.051129,11.1283668 128.761129,-1.5116332 146.261129,0.148366798 C157.951129,1.2483668 170.911129,12.7783668 165.721129,25.4783668 C165.161129,26.8583668 164.431129,28.0783668 163.571129,29.2283668 C180.921129,29.6483668 197.741129,35.3083668 211.631129,45.7483668 C213.691129,30.2683668 230.381129,8.5983668 247.571129,16.9183668 C255.261129,20.6283668 257.701129,29.8983668 255.741129,37.6883668 C254.721129,41.7283668 252.531129,45.3983668 250.011129,48.6883668 C246.661129,53.0383668 237.841129,58.3183668 235.741129,63.6883668 C248.181129,73.6083668 247.391129,92.6283668 248.051129,107.128367 C248.881129,125.398367 247.341129,143.208367 240.741129,160.148367 C239.971129,162.168367 239.091129,164.188367 238.161129,166.188367 C224.871129,194.518367 205.101129,216.518367 176.121129,227.458367 C183.291129,237.998367 190.161129,249.608367 195.491129,261.768367 C208.451129,240.558367 221.341129,219.618367 232.031129,197.098367 C237.411129,185.788367 241.741129,173.908367 246.431129,162.198367 C250.081129,153.098367 253.931129,144.118367 258.641129,135.568367 C274.791129,106.238367 311.641129,90.1683668 341.101129,111.608367 L341.111129,111.628367 Z M76.1711289,383.088367 C84.5711289,387.718367 94.0711289,381.318367 93.2711289,371.898367 C85.6211289,369.898367 78.3311289,367.048367 72.0211289,362.938367 C68.3711289,369.938367 68.2111289,378.688367 76.1711289,383.088367 Z M169.991129,381.298367 C174.721129,380.148367 177.971129,376.128367 176.071129,371.298367 C175.011129,368.548367 172.701129,366.468367 170.511129,364.548367 C166.091129,367.698367 161.091129,370.108367 155.781129,371.898367 C157.591129,378.148367 162.881129,383.028367 169.991129,381.298367 L169.991129,381.298367 Z M118.711129,371.208367 C153.271129,373.878367 187.611129,359.498367 182.981129,319.358367 C181.311129,304.798367 176.501129,290.588367 172.611129,276.478367 C168.551129,261.728367 164.481129,246.958367 160.441129,232.188367 C133.771129,238.688367 103.791129,239.088367 77.2511289,231.938367 C72.9411289,247.188367 67.8311289,262.108367 62.9011289,277.148367 C57.9811289,292.128367 53.1111289,307.798367 54.4411289,323.778367 C57.3811289,358.758367 88.5011289,368.878367 118.711129,371.218367 L118.711129,371.208367 Z M189.611129,320.048367 C197.611129,317.448367 201.551129,312.338367 201.441129,304.758367 C201.421129,303.658367 201.401129,302.528367 201.381129,301.428367 C201.321129,296.868367 200.321129,292.258367 199.321129,287.798367 C197.841129,281.218367 195.721129,274.798367 193.241129,268.548367 C187.721129,254.608367 180.071129,241.818367 173.551129,228.378367 C172.261129,228.838367 170.971129,229.298367 169.611129,229.708367 C168.131129,230.168367 166.611129,230.588367 165.111129,230.998367 C170.571129,250.768367 176.031129,270.558367 181.441129,290.348367 C183.791129,298.928367 186.361129,307.828367 187.611129,316.808367 C188.191129,316.938367 188.731129,317.268367 189.091129,317.828367 C189.211129,317.998367 189.321129,318.178367 189.441129,318.368367 C189.791129,318.928367 189.791129,319.518367 189.611129,320.038367 L189.611129,320.048367 Z M242.381129,50.2983668 C247.531129,45.2183668 252.361129,39.0283668 251.981129,31.5483668 C251.081129,14.0883668 231.381129,20.3383668 223.561129,28.4483668 C218.371129,33.8283668 215.541129,40.4083668 214.061129,47.6383668 C214.081129,47.6583668 214.101129,47.6783668 214.141129,47.6983668 C214.581129,48.0483668 214.741129,48.4883668 214.741129,48.9483668 C214.741129,50.3183668 213.121129,51.7583668 211.761129,50.7783668 C196.471129,39.8383668 180.341129,33.3783668 161.661129,31.4483668 C161.141129,31.9683668 160.621129,32.4483668 160.061129,32.9083668 C166.211129,33.1983668 172.581129,36.2383668 173.081129,42.8683668 C173.461129,47.7483668 169.771129,51.2483668 165.211129,53.5383668 C166.521129,54.1883668 167.751129,55.0983668 168.901129,55.9983668 C170.901129,57.5583668 173.001129,59.6683668 173.031129,62.3983668 C173.091129,67.5883668 166.631129,69.1483668 162.551129,68.3783668 C160.651129,68.0483668 161.381129,65.5283668 162.971129,65.3183668 C165.321129,65.0283668 170.161129,65.3983668 169.741129,61.8783668 C169.391129,58.8583668 165.071129,55.7283668 161.951129,54.9383668 C158.831129,56.0683668 155.641129,56.7083668 153.221129,56.8983668 C151.091129,57.0683668 150.721129,53.7283668 152.721129,53.2483668 C157.801129,52.0783668 168.951129,50.1683668 169.281129,43.4583668 C169.661129,36.2883668 161.801129,36.0583668 156.221129,35.5383668 C146.301129,41.1383668 131.801129,42.2083668 122.661129,41.8883668 C120.311129,41.8083668 120.331129,38.3483668 122.661129,38.2383668 C133.931129,37.7183668 172.411129,33.9283668 160.721129,13.1783668 C150.841129,-4.3216332 126.591129,7.5283668 113.491129,13.7783668 C89.7011289,25.1283668 68.7611289,39.7183668 50.4911289,58.7383668 C49.8011289,59.4483668 48.4711289,58.4683668 49.0911289,57.6583668 C49.2411289,57.4483668 49.4011289,57.2783668 49.5511289,57.0783668 C48.9511289,56.9083668 48.4311289,56.4983668 48.1811289,55.7283668 C45.4711289,47.0183668 40.1411289,39.6683668 32.4511289,34.6683668 C26.7411289,30.9383668 16.6811289,26.6683668 9.82112889,28.9983668 C-0.368871105,32.4983668 5.40112889,47.3683668 9.15112889,53.5983668 C14.0711289,61.8083668 21.8411289,66.9983668 30.6911289,70.1183668 C32.2111289,70.6583668 31.6511289,72.7883668 30.1111289,72.5983668 C7.32112889,103.368367 3.09112889,146.158367 19.0911289,181.348367 C37.1711289,221.118367 82.6111289,232.978367 122.821129,232.038367 C161.201129,231.138367 198.571129,219.688367 220.801129,186.578367 C232.821129,168.658367 241.511129,149.698367 243.051129,127.928367 C243.761129,117.848367 243.261129,107.738367 242.511129,97.6783668 C241.721129,87.3483668 241.861129,74.4083668 232.701129,67.5083668 C232.011129,66.9883668 231.701129,66.2783668 231.661129,65.5683668 C231.161129,65.0683668 230.851129,64.3783668 231.041129,63.4883668 C232.041129,58.8883668 235.641129,56.5883668 238.981129,53.5283668 C240.111129,52.5083668 241.251129,51.4283668 242.401129,50.2983668 L242.381129,50.2983668 Z M355.511129,200.028367 C363.591129,167.378367 361.721129,118.678367 322.511129,108.008367 C302.701129,102.608367 281.861129,111.698367 269.661129,127.488367 C259.311129,140.838367 254.221129,157.318367 247.931129,172.798367 C234.801129,205.008367 218.801129,237.378367 198.221129,265.528367 C197.971129,265.858367 197.681129,266.068367 197.391129,266.218367 C201.761129,277.118367 204.831129,288.408367 205.721129,299.758367 C206.391129,308.028367 205.011129,317.908367 196.721129,322.028367 C194.321129,323.218367 190.971129,323.948367 188.281129,323.258367 C188.451129,326.048367 188.451129,328.818367 188.261129,331.608367 C228.051129,328.838367 269.681129,308.958367 300.321129,284.048367 C326.861129,262.468367 347.241129,233.468367 355.511129,200.028367 Z M74.6111289,231.208367 C72.3811289,230.558367 70.1911289,229.858367 68.0311289,229.108367 C60.8211289,242.128367 52.4711289,254.458367 46.4711289,268.128367 C41.4311289,279.568367 27.4511289,320.258367 50.0111289,321.508367 C49.6411289,311.178367 51.5111289,300.738367 54.2411289,290.758367 C59.7411289,270.608367 66.9911289,250.658367 74.6111289,231.218367 L74.6111289,231.208367 Z" id="Path-29" fill="#1D1D1B" fill-rule="nonzero"></path>
        <path d="M322.511129,108.008367 C361.721129,118.678367 363.591129,167.378367 355.511129,200.028367 C347.241129,233.468367 326.861129,262.468367 300.321129,284.048367 C269.671129,308.968367 228.051129,328.838367 188.261129,331.608367 C188.451129,328.818367 188.451129,326.048367 188.281129,323.258367 C190.971129,323.948367 194.321129,323.218367 196.721129,322.028367 C205.011129,317.908367 206.391129,308.028367 205.721129,299.758367 C204.821129,288.408367 201.761129,277.108367 197.391129,266.218367 C197.681129,266.068367 197.971129,265.868367 198.221129,265.528367 C218.801129,237.378367 234.801129,205.008367 247.931129,172.798367 C254.221129,157.318367 259.311129,140.838367 269.661129,127.488367 C281.871129,111.698367 302.701129,102.618367 322.511129,108.008367 Z M341.281129,178.758367 C343.471129,177.448367 341.471129,173.988367 339.261129,175.318367 C337.951129,176.108367 336.681129,176.918367 335.361129,177.718367 C330.711129,168.218367 325.821129,158.428367 320.211129,149.198367 C326.751129,145.678367 333.311129,142.178367 339.941129,138.738367 C341.711129,137.818367 340.151129,135.178367 338.381129,136.068367 C331.711129,139.418367 325.071129,142.858367 318.441129,146.358367 C312.841129,137.458367 306.521129,129.188367 299.131129,122.318367 C298.781129,121.988367 298.151129,122.418367 298.441129,122.858367 C303.981129,131.378367 309.941129,139.458367 315.361129,148.008367 C302.191129,155.028367 289.171129,162.358367 276.421129,170.068367 C274.271129,167.378367 272.041129,164.758367 269.771129,162.198367 C269.251129,161.618367 268.231129,162.388367 268.671129,163.028367 C270.591129,165.798367 272.461129,168.568367 274.361129,171.338367 C267.961129,175.238367 261.651129,179.208367 255.441129,183.318367 C254.541129,183.918367 255.341129,185.318367 256.271129,184.778367 C262.831129,181.088367 269.391129,177.398367 275.941129,173.718367 C282.571129,183.508367 288.941129,193.388367 294.881129,203.508367 C282.881129,211.468367 271.011129,219.638367 259.281129,227.988367 C254.991129,221.278367 250.071129,215.088367 243.281129,210.568367 C242.341129,209.968367 241.181129,211.438367 242.071129,212.148367 C248.071129,216.768367 253.091129,222.668367 257.531129,229.228367 C246.011129,237.458367 234.631129,245.898367 223.381129,254.518367 C223.071129,253.808367 222.731129,253.098367 222.401129,252.388367 C221.961129,251.408367 220.231129,252.118367 220.651129,253.138367 C221.031129,254.018367 221.381129,254.888367 221.751129,255.768367 C216.331129,259.938367 210.941129,264.168367 205.581129,268.438367 C204.811129,269.038367 205.831129,270.378367 206.621129,269.788367 C211.911129,265.768367 217.241129,261.768367 222.601129,257.828367 C226.311129,266.788367 230.041129,275.768367 233.831129,284.708367 C228.561129,287.998367 223.291129,291.288367 218.021129,294.578367 C217.041129,295.208367 217.891129,296.678367 218.941129,296.158367 C224.341129,293.388367 229.711129,290.508367 235.071129,287.598367 C235.721129,289.098367 236.341129,290.618367 237.011129,292.118367 C237.821129,294.018367 240.611129,292.388367 239.781129,290.498367 C239.131129,289.038367 238.451129,287.578367 237.801129,286.098367 C250.531129,279.078367 263.111129,271.598367 275.471129,263.828367 C278.221129,270.038367 280.911129,276.078367 283.701129,281.658367 C284.701129,283.658367 287.571129,281.908367 286.681129,279.908367 C283.971129,273.928367 281.121129,267.988367 278.181129,262.098367 C286.451129,256.868367 294.601129,251.498367 302.601129,246.018367 C304.541129,244.688367 302.771129,241.538367 300.731129,242.828367 C292.581129,247.978367 284.421129,253.078367 276.251129,258.178367 C272.651129,251.138367 268.901129,244.158367 264.941129,237.328367 C263.611129,235.038367 262.291129,232.768367 260.921129,230.518367 C272.711129,222.368367 284.651129,214.398367 296.671129,206.578367 C302.501129,216.768367 307.841129,227.268367 312.401129,238.288367 C313.421129,240.788367 317.001129,239.348367 315.841129,236.848367 C310.841129,226.018367 305.461129,215.228367 299.551129,204.728367 C310.971129,197.378367 322.491129,190.168367 334.111129,183.098367 C335.491129,185.928367 336.861129,188.748367 338.261129,191.558367 C339.241129,193.578367 342.261129,191.808367 341.261129,189.788367 C339.911129,187.018367 338.531129,184.158367 337.131129,181.268367 C338.501129,180.438367 339.901129,179.578367 341.301129,178.748367 L341.281129,178.758367 Z" id="Path-30" fill="#7D4E24" fill-rule="nonzero"></path>
        <path d="M339.261129,175.318367 C341.471129,173.988367 343.471129,177.448367 341.281129,178.758367 C339.881129,179.588367 338.491129,180.448367 337.111129,181.278367 C338.511129,184.178367 339.881129,187.028367 341.231129,189.798367 C342.231129,191.818367 339.211129,193.588367 338.231129,191.568367 C336.831129,188.758367 335.461129,185.938367 334.081129,183.108367 C322.461129,190.168367 310.931129,197.378367 299.521129,204.728367 C305.441129,215.228367 310.811129,226.018367 315.811129,236.858367 C316.981129,239.358367 313.391129,240.798367 312.371129,238.298367 C307.811129,227.278367 302.471129,216.778367 296.641129,206.588367 C284.621129,214.398367 272.681129,222.378367 260.891129,230.528367 C262.261129,232.778367 263.581129,235.048367 264.911129,237.338367 C268.871129,244.168367 272.621129,251.148367 276.221129,258.188367 C284.391129,253.088367 292.551129,247.978367 300.701129,242.838367 C302.741129,241.548367 304.511129,244.688367 302.581129,246.028367 C294.581129,251.508367 286.431129,256.878367 278.161129,262.108367 C281.101129,268.008367 283.951129,273.938367 286.661129,279.918367 C287.561129,281.918367 284.681129,283.668367 283.681129,281.668367 C280.891129,276.088367 278.201129,270.048367 275.451129,263.838367 C263.101129,271.608367 250.511129,279.088367 237.781129,286.108367 C238.431129,287.588367 239.111129,289.048367 239.761129,290.508367 C240.591129,292.408367 237.801129,294.028367 236.991129,292.138367 C236.321129,290.638367 235.701129,289.118367 235.051129,287.618367 C229.701129,290.538367 224.321129,293.408367 218.931129,296.178367 C217.891129,296.698367 217.031129,295.218367 218.011129,294.598367 C223.281129,291.308367 228.551129,288.018367 233.821129,284.718367 C230.031129,275.778367 226.301129,266.798367 222.591129,257.848367 C217.241129,261.788367 211.901129,265.788367 206.611129,269.808367 C205.821129,270.388367 204.801129,269.058367 205.571129,268.458367 C210.921129,264.188367 216.321129,259.958367 221.741129,255.788367 C221.361129,254.918367 221.011129,254.038367 220.641129,253.168367 C220.221129,252.148367 221.951129,251.438367 222.391129,252.418367 C222.721129,253.128367 223.061129,253.838367 223.371129,254.538367 C234.621129,245.918367 245.991129,237.478367 257.521129,229.248367 C253.081129,222.688367 248.061129,216.788367 242.061129,212.168367 C241.161129,211.458367 242.331129,209.978367 243.271129,210.588367 C250.061129,215.108367 254.981129,221.298367 259.271129,228.008367 C271.001129,219.658367 282.871129,211.488367 294.871129,203.528367 C288.931129,193.408367 282.561129,183.528367 275.931129,173.738367 C269.391129,177.428367 262.831129,181.118367 256.261129,184.798367 C255.321129,185.338367 254.531129,183.948367 255.431129,183.338367 C261.641129,179.238367 267.951129,175.258367 274.351129,171.358367 C272.451129,168.588367 270.581129,165.818367 268.661129,163.048367 C268.221129,162.398367 269.241129,161.628367 269.761129,162.218367 C272.031129,164.778367 274.261129,167.408367 276.411129,170.088367 C289.161129,162.378367 302.181129,155.048367 315.351129,148.028367 C309.931129,139.488367 303.971129,131.398367 298.431129,122.878367 C298.141129,122.438367 298.761129,121.998367 299.121129,122.338367 C306.521129,129.208367 312.831129,137.488367 318.431129,146.378367 C325.061129,142.878367 331.701129,139.438367 338.371129,136.088367 C340.141129,135.188367 341.701129,137.838367 339.931129,138.758367 C333.301129,142.198367 326.741129,145.698367 320.201129,149.218367 C325.801129,158.448367 330.701129,168.238367 335.351129,177.738367 C336.661129,176.948367 337.931129,176.138367 339.251129,175.338367 L339.261129,175.318367 Z M332.341129,179.568367 C328.441129,171.628367 324.491129,163.718367 320.151129,155.988367 C319.171129,154.258367 318.151129,152.548367 317.131129,150.868367 C304.091129,157.928367 291.171129,165.158367 278.251129,172.408367 C285.441129,181.638367 291.831129,191.468367 297.731129,201.638367 C309.151129,194.098367 320.671129,186.768367 332.331129,179.578367 L332.341129,179.568367 Z M273.651129,259.818367 C269.341129,250.218367 264.751129,240.438367 259.171129,231.718367 C247.441129,239.838367 235.821129,248.118367 224.341129,256.568367 C228.401129,265.398367 232.461129,274.238367 236.441129,283.088367 C248.861129,275.338367 261.231129,267.568367 273.651129,259.818367 Z" id="Path-31" fill="#1D1D1B" fill-rule="nonzero"></path>
        <path d="M317.131129,150.858367 C304.091129,157.918367 291.171129,165.148367 278.251129,172.398367 C285.441129,181.628367 291.831129,191.458367 297.731129,201.628367 C309.151129,194.088367 320.671129,186.758367 332.331129,179.568367 C328.431129,171.628367 324.481129,163.718367 320.141129,155.988367 C319.161129,154.258367 318.141129,152.548367 317.121129,150.858367 L317.131129,150.858367 Z M224.341129,256.568367 C228.401129,265.398367 232.461129,274.238367 236.441129,283.088367 C248.861129,275.338367 261.231129,267.568367 273.651129,259.818367 C269.341129,250.218367 264.751129,240.448367 259.171129,231.718367 C247.441129,239.848367 235.821129,248.118367 224.341129,256.568367 Z" id="Path-32" fill="#7D4E24" fill-rule="nonzero"></path>
        <path d="M223.571129,28.4383668 C218.381129,33.8183668 215.551129,40.3983668 214.071129,47.6283668 C214.091129,47.6483668 214.111129,47.6683668 214.151129,47.6883668 C214.591129,48.0383668 214.751129,48.4783668 214.751129,48.9383668 L219.101129,49.0183668 C221.391129,42.3883668 225.661129,35.9583668 231.291129,31.8883668 C235.711129,28.6783668 243.391129,27.7383668 244.751129,34.6383668 C245.651129,39.1983668 242.671129,45.1183668 238.231129,49.6783668 L242.381129,50.2783668 C247.531129,45.1983668 252.361129,39.0083668 251.981129,31.5283668 C251.081129,14.0683668 231.381129,20.3183668 223.561129,28.4283668 L223.571129,28.4383668 Z" id="Path-33" fill="#B17F4A" fill-rule="nonzero"></path>
        <path d="M221.241129,51.5283668 C222.931129,47.7183668 224.861129,44.0483668 227.511129,40.7983668 C229.281129,38.6083668 240.131129,27.5083668 241.011129,36.2783668 C241.391129,40.2383668 236.821129,44.9883668 234.241129,47.4283668 C230.911129,50.5983668 225.781129,54.2183668 221.241129,51.5283668 Z M231.301129,31.8983668 C225.671129,35.9583668 221.401129,42.3983668 219.111129,49.0183668 C218.781129,49.9783668 218.511129,50.9183668 218.261129,51.8683668 C218.241129,51.9683668 218.261129,52.0783668 218.261129,52.1783668 C217.911129,52.8483668 217.911129,53.6783668 218.571129,54.2783668 C224.071129,59.2183668 232.421129,55.6283668 238.241129,49.6783668 C242.681129,45.1183668 245.661129,39.1983668 244.761129,34.6383668 C243.411129,27.7383668 235.721129,28.6783668 231.301129,31.8883668 L231.301129,31.8983668 Z" id="Path-34" fill="#1D1D1B" fill-rule="nonzero"></path>
        <path d="M242.511129,97.6683668 C243.261129,107.728367 243.761129,117.838367 243.051129,127.918367 C241.511129,149.688367 232.821129,168.648367 220.801129,186.568367 C198.571129,219.668367 161.201129,231.128367 122.821129,232.028367 C82.6111289,232.968367 37.1711289,221.108367 19.0911289,181.338367 C3.09112889,146.148367 7.32112889,103.358367 30.1111289,72.5883668 C31.6511289,72.7783668 32.2111289,70.6483668 30.6911289,70.1083668 C21.8411289,66.9783668 14.0611289,61.7983668 9.15112889,53.5883668 C5.40112889,47.3583668 -0.368871105,32.4883668 9.82112889,28.9883668 C16.6711289,26.6583668 26.7411289,30.9283668 32.4511289,34.6583668 C40.1411289,39.6583668 45.4711289,47.0083668 48.1811289,55.7183668 C48.4311289,56.4883668 48.9511289,56.9083668 49.5511289,57.0683668 C49.4011289,57.2783668 49.2411289,57.4483668 49.0911289,57.6483668 C48.4611289,58.4583668 49.8011289,59.4383668 50.4911289,58.7283668 C68.7611289,39.7083668 89.7011289,25.1283668 113.491129,13.7683668 C126.591129,7.5183668 150.841129,-4.3316332 160.721129,13.1683668 C172.411129,33.9183668 133.931129,37.7083668 122.661129,38.2283668 C120.331129,38.3283668 120.311129,41.7883668 122.661129,41.8783668 C131.811129,42.1883668 146.311129,41.1283668 156.221129,35.5283668 C161.801129,36.0483668 169.661129,36.2783668 169.281129,43.4483668 C168.951129,50.1583668 157.801129,52.0783668 152.721129,53.2383668 C150.721129,53.7183668 151.101129,57.0483668 153.221129,56.8883668 C155.641129,56.6983668 158.821129,56.0583668 161.951129,54.9283668 C165.081129,55.7183668 169.391129,58.8483668 169.741129,61.8683668 C170.161129,65.3883668 165.321129,65.0183668 162.971129,65.3083668 C161.391129,65.5183668 160.661129,68.0383668 162.551129,68.3683668 C166.631129,69.1383668 173.091129,67.5783668 173.031129,62.3883668 C173.011129,59.6583668 170.901129,57.5583668 168.911129,55.9883668 C167.761129,55.0883668 166.541129,54.1783668 165.221129,53.5283668 C169.781129,51.2383668 173.471129,47.7383668 173.091129,42.8583668 C172.591129,36.2383668 166.221129,33.1883668 160.071129,32.8983668 C160.631129,32.4383668 161.151129,31.9583668 161.671129,31.4383668 C180.361129,33.3783668 196.481129,39.8383668 211.771129,50.7683668 C213.121129,51.7483668 214.751129,50.3083668 214.751129,48.9383668 L219.101129,49.0183668 C218.771129,49.9783668 218.501129,50.9183668 218.251129,51.8683668 C218.231129,51.9683668 218.251129,52.0783668 218.251129,52.1783668 C217.901129,52.8483668 217.901129,53.6783668 218.561129,54.2783668 C224.061129,59.2183668 232.411129,55.6283668 238.231129,49.6783668 L242.381129,50.2783668 C241.231129,51.3983668 240.091129,52.4883668 238.961129,53.5083668 C235.631129,56.5683668 232.021129,58.8583668 231.021129,63.4683668 C230.831129,64.3683668 231.151129,65.0483668 231.651129,65.5483668 C231.691129,66.2583668 232.001129,66.9683668 232.691129,67.4883668 C241.861129,74.3883668 241.711129,87.3183668 242.501129,97.6583668 L242.511129,97.6683668 Z M182.421129,140.028367 C183.631129,130.968367 176.521129,125.698367 168.691129,123.428367 C154.151129,119.198367 137.191129,118.198367 122.131129,117.448367 C107.821129,116.738367 60.2111289,113.408367 63.1711289,138.658367 C65.4611289,158.178367 86.5211289,168.968367 105.231129,174.328367 C100.901129,183.748367 95.0811289,195.658367 94.8811289,205.708367 C94.8611289,206.438367 95.2811289,207.128367 95.9011289,207.478367 C101.941129,211.098367 110.401129,211.538367 117.321129,211.918367 C124.471129,212.298367 136.881129,212.838367 143.491129,209.268367 C145.861129,207.978367 147.071129,207.288367 147.011129,204.208367 C146.951129,199.608367 143.411129,194.128367 141.761129,189.838367 C139.761129,184.668367 137.741129,179.508367 135.721129,174.318367 C143.971129,171.918367 151.911129,168.588367 159.431129,164.238367 C168.281129,159.138367 180.931129,151.318367 182.431129,140.048367 L182.421129,140.028367 Z M223.571129,107.648367 C225.901129,94.7783668 218.361129,82.9183668 211.381129,72.8783668 C209.591129,70.2983668 205.341129,72.6883668 207.131129,75.3583668 C211.191129,81.4383668 215.671129,87.6483668 217.711129,94.7783668 C221.251129,107.198367 215.231129,124.838367 198.841129,118.858367 C183.261129,113.188367 179.921129,92.5083668 184.611129,78.7283668 C185.191129,76.9983668 182.381129,75.7683668 181.631129,77.4783668 C174.091129,94.3983668 181.251129,124.108367 203.711129,125.168367 C213.941129,125.648367 221.811129,117.248367 223.561129,107.648367 L223.571129,107.648367 Z M38.1311289,61.1883668 C38.9211289,63.6083668 42.5011289,62.6283668 41.9411289,60.1283668 C40.1711289,52.3183668 35.3111289,45.1083668 29.0911289,40.1283668 C24.8011289,36.6683668 16.6711289,31.9983668 12.2411289,37.9583668 C8.41112889,43.1083668 12.5711289,50.1683668 16.4711289,53.8283668 C21.7611289,58.7883668 29.4111289,61.5783668 36.5111289,62.4783668 C37.3211289,62.5783668 37.6111289,61.8483668 37.4511289,61.2283668 L38.0811289,61.0183668 C38.1011289,61.0783668 38.1211289,61.1183668 38.1411289,61.1883668 L38.1311289,61.1883668 Z" id="Path-35" fill="#B17F4A" fill-rule="nonzero"></path>
        <path d="M227.511129,40.7983668 C224.861129,44.0483668 222.931129,47.7183668 221.241129,51.5283668 C225.781129,54.2183668 230.911129,50.5883668 234.241129,47.4283668 C236.821129,44.9883668 241.391129,40.2383668 241.011129,36.2783668 C240.141129,27.5083668 229.281129,38.6083668 227.511129,40.7983668 Z" id="Path-36" fill="#FACCE3" fill-rule="nonzero"></path>
        <path d="M207.131129,75.3583668 C211.191129,81.4383668 215.671129,87.6483668 217.711129,94.7783668 C221.251129,107.198367 215.231129,124.838367 198.841129,118.858367 C183.261129,113.188367 179.921129,92.5083668 184.611129,78.7383668 C185.191129,77.0083668 182.381129,75.7783668 181.631129,77.4883668 C174.091129,94.4083668 181.251129,124.118367 203.711129,125.178367 C213.941129,125.658367 221.811129,117.258367 223.561129,107.658367 C225.891129,94.7783668 218.351129,82.9283668 211.371129,72.8883668 C209.581129,70.3083668 205.331129,72.6983668 207.121129,75.3683668 L207.131129,75.3583668 Z" id="Path-37" fill="#1D1D1B" fill-rule="nonzero"></path>
        <path d="M201.381129,301.418367 C201.321129,296.858367 200.321129,292.248367 199.321129,287.788367 C197.841129,281.208367 195.721129,274.788367 193.241129,268.538367 C187.721129,254.598367 180.071129,241.808367 173.551129,228.368367 C172.261129,228.828367 170.971129,229.288367 169.611129,229.698367 C168.131129,230.158367 166.611129,230.578367 165.111129,230.988367 C170.571129,250.758367 176.031129,270.548367 181.441129,290.338367 C183.791129,298.918367 186.361129,307.818367 187.611129,316.798367 C188.191129,316.918367 188.731129,317.258367 189.091129,317.818367 C189.211129,317.988367 189.321129,318.168367 189.441129,318.358367 C189.791129,318.918367 189.791129,319.508367 189.611129,320.028367 C197.611129,317.428367 201.551129,312.318367 201.441129,304.738367 C201.421129,303.638367 201.401129,302.508367 201.381129,301.408367 L201.381129,301.418367 Z" id="Path-38" fill="#B17F4A" fill-rule="nonzero"></path>
        <path d="M172.611129,276.478367 C168.551129,261.728367 164.481129,246.958367 160.441129,232.188367 C133.771129,238.688367 103.791129,239.088367 77.2511289,231.938367 C72.9411289,247.188367 67.8311289,262.108367 62.9011289,277.148367 C57.9811289,292.128367 53.1111289,307.798367 54.4411289,323.778367 C57.3811289,358.758367 88.5011289,368.878367 118.711129,371.218367 C153.271129,373.888367 187.611129,359.508367 182.981129,319.368367 C181.311129,304.808367 176.501129,290.598367 172.601129,276.498367 L172.611129,276.478367 Z" id="Path-39" fill="#7D4E24" fill-rule="nonzero"></path>
        <path d="M168.691129,123.418367 C176.521129,125.688367 183.631129,130.958367 182.421129,140.018367 C180.921129,151.288367 168.271129,159.098367 159.421129,164.208367 C151.901129,168.558367 143.961129,171.898367 135.711129,174.288367 C137.731129,179.478367 139.751129,184.638367 141.751129,189.808367 C143.401129,194.098367 146.941129,199.578367 147.001129,204.188367 C147.061129,207.268367 145.851129,207.958367 143.481129,209.248367 C136.881129,212.808367 124.461129,212.268367 117.311129,211.898367 C110.391129,211.528367 101.941129,211.088367 95.8911289,207.458367 C95.2611289,207.108367 94.8511289,206.418367 94.8711289,205.688367 C95.0811289,195.648367 100.891129,183.728367 105.221129,174.308367 C86.5111289,168.958367 65.4511289,158.158367 63.1611289,138.638367 C60.2011289,113.388367 107.811129,116.718367 122.121129,117.428367 C137.181129,118.178367 154.141129,119.178367 168.681129,123.408367 L168.691129,123.418367 Z M140.611129,204.608367 C142.961129,203.648367 143.051129,202.068367 140.861129,199.838367 C139.711129,192.028367 134.261129,182.858367 131.341129,175.488367 C127.801129,176.358367 124.211129,177.088367 120.591129,177.658367 C121.171129,187.678367 121.131129,197.718367 121.821129,207.738367 C126.321129,207.758367 131.321129,207.678367 135.591129,206.528367 C137.611129,206.628367 139.281129,205.988367 140.611129,204.608367 Z M170.171129,150.688367 C177.501129,143.858367 179.131129,131.668367 167.361129,128.208367 C162.941129,126.918367 158.191129,126.458367 153.631129,125.768367 C143.191129,124.248367 132.691129,122.938367 122.131129,122.418367 C108.031129,121.688367 56.0911289,119.438367 71.0911289,145.898367 C80.7211289,162.878367 100.491129,167.798367 117.711129,173.648367 C118.001129,173.268367 118.461129,172.998367 119.091129,172.898367 C137.091129,170.128367 156.571129,163.338367 170.171129,150.688367 L170.171129,150.688367 Z M118.131129,207.728367 C116.941129,197.788367 116.381129,187.188367 117.841129,177.248367 C114.671129,176.688367 111.261129,175.938367 107.721129,174.998367 C105.511129,182.078367 101.661129,189.998367 100.931129,197.228367 C100.351129,202.808367 100.831129,204.378367 105.931129,206.308367 C109.331129,207.578367 114.081129,207.708367 118.141129,207.728367 L118.131129,207.728367 Z" id="Path-40" fill="#1D1D1B" fill-rule="nonzero"></path>
        <path d="M170.511129,364.548367 C166.091129,367.698367 161.091129,370.108367 155.781129,371.898367 C157.591129,378.148367 162.881129,383.028367 169.991129,381.298367 C174.721129,380.148367 177.971129,376.128367 176.071129,371.298367 C175.011129,368.548367 172.691129,366.468367 170.511129,364.548367 L170.511129,364.548367 Z" id="Path-41" fill="#B17F4A" fill-rule="nonzero"></path>
        <path d="M153.631129,125.778367 C143.191129,124.258367 132.691129,122.948367 122.131129,122.428367 C108.031129,121.698367 56.0911289,119.448367 71.0911289,145.908367 C80.7111289,162.888367 100.491129,167.808367 117.711129,173.658367 C118.001129,173.278367 118.461129,173.008367 119.081129,172.908367 C137.081129,170.138367 156.561129,163.348367 170.161129,150.698367 C177.491129,143.868367 179.121129,131.678367 167.351129,128.218367 C162.931129,126.928367 158.181129,126.468367 153.621129,125.778367 L153.631129,125.778367 Z" id="Path-42" fill="#5E3B1B" fill-rule="nonzero"></path>
        <path d="M131.341129,175.478367 C127.801129,176.348367 124.221129,177.078367 120.591129,177.648367 C121.171129,187.668367 121.131129,197.708367 121.821129,207.728367 C126.321129,207.748367 131.321129,207.668367 135.591129,206.518367 C137.611129,206.618367 139.281129,205.978367 140.611129,204.598367 C142.961129,203.638367 143.051129,202.058367 140.861129,199.828367 C139.711129,192.018367 134.261129,182.848367 131.341129,175.478367 Z M107.711129,175.008367 C105.501129,182.088367 101.651129,190.008367 100.921129,197.238367 C100.341129,202.818367 100.821129,204.388367 105.921129,206.318367 C109.321129,207.588367 114.071129,207.718367 118.131129,207.738367 C116.941129,197.798367 116.381129,187.198367 117.841129,177.258367 C114.671129,176.698367 111.261129,175.948367 107.711129,175.008367 L107.711129,175.008367 Z" id="Path-43" fill="#F6F6F6" fill-rule="nonzero"></path>
        <path d="M72.0311289,362.938367 C68.3811289,369.938367 68.2211289,378.688367 76.1811289,383.088367 C84.5811289,387.718367 94.0811289,381.318367 93.2811289,371.898367 C85.6311289,369.898367 78.3411289,367.048367 72.0311289,362.938367 Z M46.4611289,268.128367 C41.4211289,279.568367 27.4411289,320.258367 50.0011289,321.498367 C49.6211289,311.168367 51.5011289,300.728367 54.2311289,290.748367 C59.7311289,270.598367 66.9811289,250.648367 74.6011289,231.208367 C72.3711289,230.558367 70.1811289,229.858367 68.0211289,229.108367 C60.8111289,242.128367 52.4611289,254.458367 46.4611289,268.128367 L46.4611289,268.128367 Z" id="Path-44" fill="#B17F4A" fill-rule="nonzero"></path>
        <path d="M67.5711289,76.8183668 C71.4711289,87.6883668 73.8411289,111.698367 57.8211289,114.858367 C47.8411289,116.818367 44.7211289,106.088367 45.1111289,98.5483668 C45.5111289,91.2383668 48.1111289,84.1683668 51.5711289,77.7983668 C53.0911289,75.0083668 48.8411289,72.5083668 47.3011289,75.2983668 C41.0311289,86.8383668 32.5711289,119.448367 55.2011289,119.988367 C76.7811289,120.508367 77.8911289,89.1083668 69.8511289,75.8583668 C69.1411289,74.6883668 67.0811289,75.4383668 67.5811289,76.8183668 L67.5711289,76.8183668 Z M29.0911289,40.1283668 C24.8011289,36.6683668 16.6711289,32.0083668 12.2411289,37.9583668 C8.41112889,43.1083668 12.5711289,50.1683668 16.4711289,53.8383668 C21.7611289,58.7983668 29.4111289,61.5883668 36.5111289,62.4883668 C37.3211289,62.5883668 37.6111289,61.8583668 37.4511289,61.2383668 C37.3511289,60.9083668 37.1411289,60.5883668 36.7811289,60.4683668 C32.4311289,58.7583668 27.9311289,57.4883668 23.8811289,55.0283668 C20.7311289,53.1283668 13.2111289,47.3783668 14.7111289,42.7783668 C16.3811289,41.6083668 18.0211289,40.4283668 19.6711289,39.2583668 C20.4811289,39.5683668 21.2911289,39.8883668 22.1111289,40.1783668 C23.0511289,40.6383668 23.9211289,41.2383668 24.7811289,41.8283668 C26.8211289,43.2483668 28.7011289,44.9583668 30.3411289,46.7883668 C34.1311289,50.9783668 36.3211289,55.7483668 38.0711289,61.0383668 C38.0911289,61.0983668 38.1111289,61.1383668 38.1311289,61.2083668 C38.9211289,63.6283668 42.5111289,62.6483668 41.9411289,60.1483668 C40.1711289,52.3383668 35.3111289,45.1283668 29.0911289,40.1483668 L29.0911289,40.1283668 Z" id="Path-45" fill="#1D1D1B" fill-rule="nonzero"></path>
        <path d="M30.3411289,46.7783668 C28.6911289,44.9483668 26.8211289,43.2383668 24.7811289,41.8183668 C23.9311289,41.2383668 23.0511289,40.6283668 22.1111289,40.1683668 C21.3011289,39.8783668 20.4911289,39.5683668 19.6711289,39.2483668 C18.0211289,40.4183668 16.3811289,41.5983668 14.7111289,42.7683668 C13.2111289,47.3683668 20.7311289,53.1183668 23.8811289,55.0183668 C27.9211289,57.4783668 32.4211289,58.7483668 36.7811289,60.4583668 C37.1311289,60.5883668 37.3411289,60.8983668 37.4511289,61.2283668 L38.0811289,61.0183668 C36.3311289,55.7283668 34.1411289,50.9583668 30.3511289,46.7683668 L30.3411289,46.7783668 Z" id="Path-46" fill="#FACCE3" fill-rule="nonzero"></path>
        <path d="M254.331129,26.7983668 C253.771129,31.9383668 246.961129,34.7483668 244.001129,29.5983668 C240.411129,23.3583668 227.141129,41.7783668 220.301129,51.2983668 C222.771129,55.5983668 216.851129,61.5083668 211.991129,58.8183668 C203.081129,53.8883668 194.741129,48.5983668 185.131129,44.9783668 C180.691129,43.2983668 175.041129,42.4683668 169.991129,40.9483668 C170.601129,42.5683668 170.871129,44.5083668 170.721129,46.8183668 C170.381129,52.1583668 162.911129,53.3783668 161.321129,48.0883668 C159.171129,40.9583668 149.851129,43.5683668 144.301129,44.0583668 C138.911129,44.5383668 133.511129,45.0783668 128.101129,45.0083668 C124.901129,44.9683668 124.471129,40.5583668 127.371129,39.5883668 C132.541129,37.8683668 144.131129,34.1483668 154.031129,33.8183668 C151.361129,32.8883668 149.471129,30.0383668 151.471129,27.0383668 C156.091129,20.0983668 151.101129,14.2183668 144.051129,12.4283668 C138.501129,11.0183668 132.341129,12.7083668 127.031129,14.4683668 C117.661129,17.5783668 109.191129,22.9383668 101.181129,28.6183668 C83.7911289,40.9583668 68.5911289,58.0483668 49.9711289,68.3983668 C48.6111289,69.1483668 47.1111289,68.6383668 46.2411289,67.6183668 C44.8311289,67.4383668 43.4811289,66.6583668 42.5411289,65.0283668 C37.8311289,56.8183668 14.8011289,20.4983668 5.25112889,40.8283668 C4.59112889,42.2383668 2.14112889,41.9083668 1.86112889,40.3883668 C-0.298871105,28.7083668 10.6811289,21.5083668 21.3411289,26.0483668 C33.7611289,31.3383668 44.2011289,45.7983668 50.8111289,57.5883668 C60.1311289,45.9083668 73.1411289,36.1983668 84.4711289,27.1983668 C96.1211289,17.9583668 108.201129,9.0283668 122.421129,4.1783668 C133.861129,0.278366798 149.861129,-1.8016332 159.071129,8.1483668 C165.431129,15.0283668 166.521129,26.5183668 159.111129,32.9383668 C158.611129,33.3683668 158.071129,33.6683668 157.511129,33.8683668 C158.651129,33.9383668 159.751129,34.0683668 160.801129,34.2683668 C160.811129,33.4383668 161.131129,32.6183668 161.841129,31.9383668 C161.981129,31.7983668 162.121129,31.6683668 162.271129,31.5383668 C163.491129,30.3783668 165.281129,30.4283668 166.511129,31.5383668 C167.561129,32.4783668 179.401129,32.6283668 181.151129,32.9883668 C185.741129,33.9283668 190.301129,35.2083668 194.701129,36.8083668 C200.761129,39.0183668 206.661129,41.6983668 212.151129,45.0583668 C215.901129,35.3883668 222.991129,25.1183668 230.661129,20.0083668 C237.671129,15.3283668 255.731129,13.9983668 254.351129,26.8183668 L254.331129,26.7983668 Z M168.931129,66.9883668 C165.171129,68.9683668 161.361129,64.2083668 164.371129,61.0883668 C163.961129,61.5083668 164.291129,61.0783668 164.491129,60.8583668 C164.501129,60.7583668 164.571129,60.5783668 164.571129,60.7783668 C164.571129,60.7783668 164.581129,60.7783668 164.581129,60.7683668 C164.591129,60.7183668 164.591129,60.6883668 164.601129,60.6583668 C164.581129,60.6483668 164.541129,60.6083668 164.491129,60.4183668 C164.611129,60.8383668 164.271129,60.2483668 164.391129,60.2883668 C163.191129,59.2283668 161.471129,58.8483668 159.941129,58.4683668 C156.621129,57.6483668 157.661129,53.1183668 160.701129,52.8583668 C164.511129,52.5283668 168.661129,53.4283668 170.861129,56.8783668 C172.931129,60.1283668 172.611129,65.0383668 168.931129,66.9683668 L168.931129,66.9883668 Z M147.331129,179.338367 C151.301129,188.258367 156.401129,199.098367 156.651129,208.198367 C156.871129,216.368367 150.981129,218.898367 143.911129,220.128367 C130.951129,222.398367 100.121129,225.418367 95.8911289,207.458367 C95.4311289,205.498367 97.2511289,203.148367 99.4011289,203.948367 C111.311129,208.338367 121.531129,210.518367 134.461129,209.268367 C134.881129,209.228367 144.051129,207.858367 144.091129,207.808367 C144.781129,206.768367 141.641129,200.268367 141.271129,199.168367 C139.161129,192.858367 136.841129,186.608367 134.701129,180.308367 C133.101129,175.618367 138.271129,171.998367 142.221129,172.788367 C155.221129,165.508367 169.451129,156.958367 173.381129,142.268367 C172.641129,142.388367 171.841129,142.388367 170.981129,142.208367 C147.621129,137.328367 124.531129,133.778367 100.601129,133.678367 C95.7111289,133.658367 87.6711289,132.468367 82.9311289,134.068367 C73.8911289,137.118367 77.3711289,144.488367 81.0911289,150.258367 C86.6711289,158.908367 94.6611289,163.508367 103.791129,167.658367 C106.021129,168.668367 104.791129,172.058367 102.601129,172.068367 C90.1311289,172.118367 78.0611289,164.558367 71.2111289,154.288367 C65.8411289,146.228367 62.0111289,133.108367 71.0711289,126.008367 C76.4211289,121.818367 84.3911289,122.228367 90.7811289,121.918367 C99.9411289,121.468367 109.121129,121.518367 118.281129,122.008367 C137.041129,122.998367 156.101129,125.458367 174.231129,130.438367 C175.791129,130.868367 176.871129,131.688367 177.581129,132.688367 C180.571129,131.498367 184.511129,132.908367 184.261129,137.028367 C182.931129,158.788367 165.821129,171.528367 147.341129,179.348367 L147.331129,179.338367 Z M363.541129,162.348367 C363.871129,167.228367 355.881129,168.298367 355.001129,163.508367 C350.191129,137.178367 324.191129,131.828367 301.251129,129.868367 C298.121129,131.728367 295.161129,133.888367 292.381129,136.148367 C279.191129,146.898367 269.821129,161.038367 262.041129,175.998367 C261.781129,176.508367 261.391129,176.778367 260.961129,176.888367 C257.021129,188.508367 253.861129,200.338367 247.041129,210.738367 C240.411129,220.838367 231.651129,229.258367 223.601129,238.188367 C219.001129,243.298367 214.571129,248.608367 211.221129,254.648367 C205.861129,264.328367 210.031129,269.648367 214.461129,278.098367 C219.691129,288.068367 221.331129,298.738367 216.041129,309.048367 C213.391129,314.208367 209.001129,320.228367 204.451129,323.908367 C202.911129,325.148367 194.201129,330.568367 191.841129,327.688367 C194.151129,330.508367 191.251129,334.958367 187.791129,332.938367 C184.641129,331.108367 183.421129,328.168367 184.711129,324.598367 C185.481129,322.468367 186.961129,321.198367 188.731129,320.268367 C188.241129,319.868367 187.821129,319.358367 187.501129,318.718367 C176.201129,295.978367 165.401129,269.338367 163.971129,243.308367 C149.761129,248.548367 132.331129,247.858367 118.271129,247.418367 C108.031129,247.098367 93.1511289,247.428367 80.7511289,244.158367 C78.5511289,248.598367 78.3111289,254.558367 77.2911289,259.198367 C75.8811289,265.568367 74.5111289,271.948367 73.1911289,278.338367 C70.8111289,289.818367 68.4811289,301.318367 66.5311289,312.878367 C65.3911289,319.598367 63.3711289,327.408367 65.2311289,334.148367 C66.7911289,339.798367 71.1111289,344.298367 75.1011289,348.358367 C83.2811289,356.658367 92.4111289,361.298367 102.571129,366.578367 C106.291129,368.518367 103.541129,373.678367 99.8811289,372.958367 C87.1811289,370.478367 74.3811289,362.578367 65.1511289,353.658367 C55.3411289,344.188367 51.9111289,334.188367 53.4511289,320.688367 C55.3411289,304.128367 58.4811289,287.518367 63.0211289,271.478367 C65.2011289,263.748367 67.4011289,249.058367 73.8411289,241.808367 C69.4311289,239.898367 65.6311289,237.288367 62.8811289,233.728367 C61.5211289,231.968367 63.4411289,229.938367 65.1611289,229.758367 C74.1111289,228.808367 83.9311289,232.768367 92.9111289,233.768367 C101.321129,234.708367 109.841129,234.938367 118.291129,235.168367 C136.301129,235.658367 151.721129,234.528367 168.391129,227.228367 C175.611129,224.068367 180.921129,233.068367 174.551129,237.768367 C173.351129,238.648367 172.091129,239.428367 170.811129,240.168367 C173.161129,251.838367 176.041129,263.158367 180.341129,274.418367 C185.541129,288.028367 192.141129,300.998367 197.651129,314.458367 C197.881129,315.008367 197.961129,315.538367 197.991129,316.048367 C198.141129,315.928367 198.301129,315.808367 198.451129,315.678367 C207.811129,307.168367 209.721129,295.098367 204.101129,284.188367 C200.461129,277.128367 194.291129,271.228367 195.241129,262.708367 C196.701129,249.678367 207.501129,237.708367 215.941129,228.388367 C228.081129,214.978367 238.701129,203.298367 244.931129,186.228367 C244.881129,186.088367 244.831129,185.958367 244.821129,185.798367 C243.881129,172.048367 251.801129,158.798367 260.641129,147.148367 C263.031129,142.328367 265.581129,137.548367 268.381129,132.778367 C275.941129,119.938367 285.201129,109.348367 299.981129,105.048367 C317.851129,99.8483668 337.051129,106.538367 348.261129,119.988367 C348.411129,120.048367 348.561129,120.108367 348.701129,120.168367 C350.621129,120.978367 351.391129,122.568367 351.381129,124.238367 C355.201129,130.158367 357.561129,137.098367 357.891129,144.708367 C361.041129,149.558367 363.081129,155.388367 363.551129,162.378367 L363.541129,162.348367 Z M288.961129,126.208367 C288.661129,126.058367 288.401129,125.828367 288.181129,125.568367 C286.921129,126.848367 285.711129,128.178367 284.631129,129.648367 C284.381129,129.978367 284.151129,130.348367 283.911129,130.678367 C285.541129,129.118367 287.231129,127.638367 288.961129,126.198367 L288.961129,126.208367 Z M316.891129,124.278367 C326.641129,125.248367 336.381129,127.738367 344.421129,132.318367 C343.801129,131.278367 343.181129,130.228367 342.481129,129.238367 C334.271129,126.588367 326.061129,123.388367 317.251129,124.218367 C317.131129,124.228367 317.011129,124.258367 316.891129,124.278367 L316.891129,124.278367 Z" id="Path-47" fill="#B2B2B2" fill-rule="nonzero" opacity="0.259" style="mix-blend-mode: multiply;"></path>
    </g>
</svg>